# xmcd CD database file
#
# Track frame offsets:
#	150
#	39698
#	79518
#	119661
#	155271
#	204415
#
# Disc length: 3188 seconds
#
# Revision: 0
# Processed by: cddbd v1.5.2PL0 Copyright (c) Steve Scherf et al.
# Submitted via: CDex 1.51
#
DISCID=460c7206
DTITLE=David Arkenstone and George Tortorelli - Spa Bliss
DYEAR=2012
DGENRE=New Age
TTITLE0=Cloud 9
TTITLE1=Awakening
TTITLE2=Valley Of Enchantment
TTITLE3=Lift The Veil
TTITLE4=The Gates Open
TTITLE5=Breath Of Life
EXTD=YEAR: 2012
EXTT0=
EXTT1=
EXTT2=
EXTT3=
EXTT4=
EXTT5=
PLAYORDER=
